# Blender v2.79 (sub 0) OBJ File: ''
# www.blender.org

g cubo2
v 1.000000 -1.000000 -1.000000

v 1.000000 -1.000000 1.000000

v -1.000000 -1.000000 1.000000

v -1.000000 -1.000000 -1.000000

v 0.750000 1.000000 -0.750000
v 0.750000 1.000000 0.750000

v -0.750000 1.000000 0.750000

v -0.750000 1.000000 -0.750000

v 1.000000 0.875000 -1.000000

v 1.000000 0.875000 1.000000
v -1.000000 0.875000 -1.000000

v -1.000000 0.875000 1.000000

vn 0.0000 -1.0000 0.0000

vn 0.0000 1.0000 -0.0000

vn 1.0000 0.0000 0.0000

vn -0.0000 -0.0000 1.0000

vn -1.0000 -0.0000 -0.0000

vn 0.0000 0.0000 -1.0000

vn 0.4073 0.9133 0.0000

vn 0.0000 0.9133 -0.4073
vn -0.0000 0.9133 0.4073

vn -0.4073 0.9133 -0.0000

f 1//1 2//1 3//1 4//1

f 5//2 8//2 7//2 6//2

f 1//3 9//3 10//3 2//3

f 2//4 10//4 12//4 3//4

f 3//5 12//5 11//5 4//5

f 9//6 1//6 4//6 11//6

f 5//7 6//7 10//7 9//7

f 8//8 5//8 9//8 11//8

f 6//9 7//9 12//9 10//9

f 7//10 8//10 11//10 12//10
